<?xml version="1.0" encoding="utf-8"?>
<!-- Generator: Adobe Illustrator 21.0.0, SVG Export Plug-In . SVG Version: 6.00 Build 0)  -->
<svg version="1.1" id="Layer_1" xmlns="http://www.w3.org/2000/svg" xmlns:xlink="http://www.w3.org/1999/xlink" x="0px" y="0px"
	 viewBox="0 0 146.3 122.2" style="enable-background:new 0 0 146.3 122.2;" xml:space="preserve">
<style type="text/css">
	.st0{fill:#343A3B;}
	.st1{fill:#3B6E5E;}
</style>
<g>
	<path class="st0" d="M107.3,41.6c0-16.4-13.3-29.7-29.7-29.7c-16.4,0-29.7,13.3-29.7,29.7s13.3,29.7,29.7,29.7
		C93.9,71.3,107.3,58,107.3,41.6z M49.8,41.6c0-15.3,12.4-27.7,27.7-27.7c15.3,0,27.7,12.4,27.7,27.7c0,15.3-12.4,27.7-27.7,27.7
		C62.3,69.3,49.8,56.9,49.8,41.6z"/>
	<path class="st0" d="M146.3,115.1H83.6c-0.2-1.3-0.9-2.5-1.8-3.4c9.9-13.1,37.4-51.2,37.4-70C119.1,18.7,100.5,0,77.6,0
		C54.6,0,36,18.7,36,41.6c0,18.9,27.5,56.9,37.4,70c-0.9,0.9-1.6,2.1-1.8,3.4H58.6c-0.5-2.9-3-5.1-6.1-5.1c-3,0-5.6,2.2-6.1,5.1
		H31.8c-0.5-2.9-3-5.1-6.1-5.1s-5.6,2.2-6.1,5.1H0v2h19.7c0.5,2.9,3,5.1,6.1,5.1s5.6-2.2,6.1-5.1h14.6c0.5,2.9,3,5.1,6.1,5.1
		c3,0,5.6-2.2,6.1-5.1h12.9c0.5,2.9,3,5.1,6.1,5.1c3,0,5.6-2.2,6.1-5.1h62.7V115.1z M81.6,115.1h-2.4c0.4-0.5,0.8-1.1,1.4-1.8
		C81,113.7,81.4,114.4,81.6,115.1z M77.6,113.9c-0.3-0.4-0.8-1-1.3-1.7c0.4-0.1,0.9-0.2,1.3-0.2s0.9,0.1,1.3,0.2
		C78.3,112.8,77.9,113.4,77.6,113.9z M38,41.6C38,19.8,55.7,2,77.6,2s39.6,17.8,39.6,39.6c0,18-27.3,56-37,68.9
		c-0.8-0.4-1.7-0.6-2.6-0.6c-0.9,0-1.8,0.2-2.6,0.6C65.3,97.6,38,59.6,38,41.6z M74.5,113.2c0.6,0.7,1,1.4,1.4,1.8h-2.4
		C73.7,114.4,74.1,113.7,74.5,113.2z M52.5,111.9c1.9,0,3.6,1.3,4,3.1h-8C48.9,113.3,50.6,111.9,52.5,111.9z M25.7,111.9
		c1.9,0,3.6,1.3,4,3.1h-8C22.2,113.3,23.8,111.9,25.7,111.9z M25.7,120.2c-1.9,0-3.6-1.3-4-3.1h8C29.3,118.9,27.7,120.2,25.7,120.2z
		 M52.5,120.2c-1.9,0-3.6-1.3-4-3.1h8C56.1,118.9,54.4,120.2,52.5,120.2z M77.6,120.2c-1.9,0-3.6-1.3-4-3.1h4l0,0.1l0-0.1h4
		C81.1,118.9,79.5,120.2,77.6,120.2z"/>
	<path class="st0" d="M67.5,29c-4.5,0-8.1,3.6-8.1,8.1c0,4.1,3.1,7.5,7.1,8v2.7h-3.5v2h3.5v3.3h2v-3.3H72v-2h-3.5v-2.7
		c4-0.5,7.1-3.9,7.1-8C75.6,32.7,72,29,67.5,29z M67.5,43.2c-3.4,0-6.1-2.7-6.1-6.1s2.7-6.1,6.1-6.1c3.4,0,6.1,2.7,6.1,6.1
		S70.9,43.2,67.5,43.2z"/>
	<path class="st0" d="M84.3,52.5c4.5,0,8.1-3.6,8.1-8.1c0-1.9-0.6-3.6-1.7-5l4.7-4.7l-0.2,5.9l1.5,0.1l0.4-9L88,32l0,1.5l5.9-0.2
		L89.3,38c-1.4-1.1-3.1-1.7-5-1.7c-4.5,0-8.1,3.6-8.1,8.1S79.8,52.5,84.3,52.5z M84.3,38.3c3.4,0,6.1,2.7,6.1,6.1s-2.7,6.1-6.1,6.1
		s-6.1-2.7-6.1-6.1S80.9,38.3,84.3,38.3z"/>
</g>
</svg>
